<svg width="13" height="13" viewBox="0 0 13 13" fill="none" xmlns="http://www.w3.org/2000/svg">
<path fill-rule="evenodd" clip-rule="evenodd" d="M6.5 0C2.91015 0 0 2.91015 0 6.5C0 7.66265 0.305256 8.75401 0.839994 9.6983C1.3316 9.19904 2.0282 8.63043 2.89123 8.00278C3.28903 7.69858 3.73363 7.39438 4.15483 7.11358C4.01443 6.66898 3.94423 6.06058 3.94423 5.49898C3.94423 4.98418 3.99103 4.49278 4.06123 4.18858C4.28538 3.33681 5.04631 3.02183 5.6036 2.79114C5.62809 2.78101 5.65219 2.77103 5.67583 2.76118C5.88643 2.69098 6.28423 2.57398 6.37783 2.69098C6.33103 2.73778 6.30763 2.76118 6.19063 2.94838C5.90983 3.50998 5.72263 4.49278 5.72263 5.26498C5.72263 5.54578 5.76943 5.82658 5.81623 6.01378C7.50249 4.87204 9.8744 3.49296 11.6848 2.57928C10.4981 1.01229 8.61724 0 6.5 0ZM11.8803 2.85163C9.68633 4.28389 7.63978 5.91066 6.13738 7.10491L6.09703 7.13698C6.4475 8.80525 7.55388 10.9942 9.04883 12.4812C11.3718 11.4901 13 9.18517 13 6.5C13 5.14768 12.587 3.89181 11.8803 2.85163ZM8.039 12.8167C6.60343 11.6937 5.37482 10.0742 4.62283 8.30698C3.33583 9.28978 2.47003 10.0386 1.90843 10.7874C1.85936 10.8481 1.81496 10.907 1.77514 10.9638C2.96009 12.2176 4.63868 13 6.5 13C7.03022 13 7.54562 12.9365 8.039 12.8167Z" fill="black"/>
</svg>
