<svg width="13" height="13" viewBox="0 0 13 13" fill="none" xmlns="http://www.w3.org/2000/svg">
<path fill-rule="evenodd" clip-rule="evenodd" d="M7.8441 3.79163C7.06808 4.60094 5.90793 5.81085 4.66252 5.93813C4.28449 5.97676 3.9157 5.91896 3.87706 5.54093C3.70707 3.87759 6.16687 0.474871 7.96251 0.291357C8.54846 0.231473 8.87448 0.618332 8.93823 1.24208C9.01812 2.0238 8.80983 2.56282 8.70864 2.82468C8.66058 2.94905 8.63667 3.01091 8.67928 3.00655C8.81159 2.99303 9.43092 1.7647 9.33626 0.838524C9.32854 0.762989 9.31633 0.690958 9.29999 0.622377C10.1384 1.02317 10.8775 1.59836 11.4703 2.30099C8.65177 5.48395 5.39185 10.0733 4.32019 12.6155C1.80247 11.7195 0 9.31528 0 6.49006C0 3.02188 2.71622 0.188107 6.13742 0C4.14461 1.01401 2.21655 3.49601 2.42509 5.53653C2.5352 6.61391 3.37819 7.38721 4.43668 7.27904C6.85608 7.03178 8.78814 3.5111 8.75723 3.20867C8.74564 3.09527 8.72288 3.05939 8.68507 3.06326C8.52703 3.07941 8.23407 3.38494 7.8441 3.79163ZM5.2478 12.8695C5.653 12.9486 6.07166 12.9901 6.5 12.9901C7.29593 12.9901 8.05844 12.847 8.76323 12.5852C8.79665 10.4553 10.9214 7.98249 12.9619 7.19748C12.9871 6.96512 13 6.7291 13 6.49006C13 5.47741 12.7684 4.51885 12.3554 3.66444C9.61345 6.75658 6.4667 10.8159 5.2478 12.8695ZM12.6723 8.53353C11.73 9.33336 10.8554 10.5737 10.4462 11.6555C11.4723 10.8704 12.2577 9.78639 12.6723 8.53353Z" fill="white"/>
</svg>
