<svg width="129" height="23" viewBox="0 0 129 23" fill="none" xmlns="http://www.w3.org/2000/svg">
<g clip-path="url(#clip0_1_19)">
<path d="M37.5708 15.9167H33.2644L32.6784 17.259H29.3306L34.6878 5.61285H36.1347L41.501 17.259H38.1514L37.5708 15.9167ZM36.5977 13.6831L35.4185 10.9569L34.2302 13.6831H36.5977Z" fill="white"/>
<path d="M51.2169 14.3904V17.259H43.7419V5.75543H46.8021V14.3904H51.2169Z" fill="white"/>
<path d="M65.2773 11.7706C65.2773 15.2672 62.6294 17.5296 59.354 17.5296C55.6915 17.5296 52.9225 14.8035 52.9225 11.5216C52.9225 8.23978 55.6987 5.47754 59.2744 5.47754C60.7412 5.49919 62.4377 6.11984 63.3891 6.99668L61.6926 9.31689C61.0337 8.70565 60.1738 8.35536 59.2744 8.33179C58.4261 8.33501 57.6129 8.67028 57.0098 9.26547C56.4067 9.86067 56.0619 10.6682 56.0496 11.5144C56.0496 13.1274 57.3446 14.697 59.4752 14.697C60.8696 14.697 61.8644 14.0259 61.9078 12.9271H59.2672V10.6448H65.1832C65.2426 11.0172 65.2741 11.3935 65.2773 11.7706Z" fill="white"/>
<path d="M67.3626 11.5216C67.3626 8.06657 70.11 5.44867 73.6929 5.44867C77.2758 5.44867 80.0231 8.06657 80.0231 11.5216C80.0231 14.9496 77.2776 17.5513 73.6929 17.5513C70.1081 17.5513 67.3626 14.946 67.3626 11.5216ZM76.9267 11.5C76.9267 9.72283 75.5232 8.35344 73.6929 8.35344C71.8625 8.35344 70.459 9.72283 70.459 11.5C70.459 13.2771 71.8607 14.6321 73.6929 14.6321C75.525 14.6321 76.9267 13.2699 76.9267 11.5Z" fill="white"/>
<path d="M88.7696 17.259L85.6859 12.2686V17.259H82.6239L82.6094 5.75543H86.9954C89.4841 5.75543 91.2656 7.43154 91.2656 9.49374C91.268 10.1528 91.0821 10.799 90.7298 11.3565C90.3775 11.9141 89.8732 12.36 89.2761 12.6421L92.367 17.259H88.7696ZM85.6715 10.8072H86.923C87.5741 10.8072 88.1674 10.358 88.1674 9.65071C88.1674 8.94346 87.5669 8.49602 86.923 8.49602H85.6715V10.8072Z" fill="white"/>
<path d="M96.1055 5.75543H99.1675V17.259H96.1055V5.75543Z" fill="white"/>
<path d="M111.719 8.60968H108.958V17.259H105.883V8.60968H103.121V5.75543H111.719V8.60968Z" fill="white"/>
<path d="M128.033 5.64899V17.259H124.977V12.698L121.868 17.066H121.846L118.735 12.698V17.259H115.673V5.64899H116.903L121.853 12.413L126.803 5.64899H128.033Z" fill="white"/>
<path d="M19.6219 14.3416L16.8999 20.4001L13.6896 22.9585V19.2689L17.6306 10.7603L11.6476 0L3.99528 15.1102L7.86576 15.1535L11.6476 7.96556L13.2681 10.661L9.06669 19.2689H1.88822L0 23H13.6371H13.6896H24.4365L19.6219 14.3416Z" fill="#FAE02E"/>
<path d="M13.9934 20.8386V22.3234L15.1455 21.4213C15.1455 21.4213 14.3425 21.47 13.9934 20.8386Z" fill="#FAE02E"/>
<path d="M14.5975 19.3717L14.7259 19.4295C14.7744 19.4528 14.827 19.4662 14.8807 19.4689C14.9345 19.4716 14.9882 19.4635 15.0387 19.4452C15.0893 19.4269 15.1357 19.3986 15.1751 19.3622C15.2146 19.3257 15.2463 19.2817 15.2685 19.2328L18.506 12.2686L17.938 11.2456L14.4022 18.8359C14.3576 18.9329 14.3531 19.0435 14.3897 19.1438C14.4262 19.2441 14.5009 19.326 14.5975 19.3717Z" fill="#FAE02E"/>
<path d="M15.8238 20.0826L15.9504 20.1421C15.9988 20.1654 16.0515 20.1788 16.1052 20.1815C16.1589 20.1842 16.2126 20.1762 16.2632 20.1578C16.3137 20.1395 16.3601 20.1113 16.3996 20.0748C16.439 20.0383 16.4708 19.9944 16.493 19.9455L19.3524 13.7913L18.7827 12.7665L15.6266 19.5485C15.6044 19.5965 15.5919 19.6484 15.5898 19.7012C15.5876 19.754 15.596 19.8067 15.6143 19.8563C15.6326 19.9059 15.6605 19.9514 15.6965 19.9902C15.7324 20.0291 15.7757 20.0604 15.8238 20.0826Z" fill="#FAE02E"/>
</g>
<defs>
<clipPath id="clip0_1_19">
<rect width="128.033" height="23" fill="white"/>
</clipPath>
</defs>
</svg>
